<svg xmlns="http://www.w3.org/2000/svg" xmlns:xlink="http://www.w3.org/1999/xlink" class="httpgd" width="800.00" height="600.00" viewBox="0 0 800.00 600.00">
<defs>
  <style type='text/css'><![CDATA[
    .httpgd line, .httpgd polyline, .httpgd polygon, .httpgd path, .httpgd rect, .httpgd circle {
      fill: none;
      stroke: #000000;
      stroke-linecap: round;
      stroke-linejoin: round;
      stroke-miterlimit: 10.00;
    }
  ]]></style>
<clipPath id="c0"><rect x="0.00" y="0.00" width="800.00" height="600.00"/></clipPath>
<clipPath id="c1"><rect x="59.04" y="59.04" width="710.72" height="467.52"/></clipPath>
<clipPath id="c2"><rect x="0.00" y="0.00" width="800.00" height="600.00"/></clipPath>
<clipPath id="c3"><rect x="59.04" y="59.04" width="710.72" height="467.52"/></clipPath>
</defs>
<rect width="100%" height="100%" style="stroke: none;fill: #FFFFFF;"/>
<g clip-path="url(#c0)">
</g><g clip-path="url(#c1)">
<circle cx="242.51" cy="396.01" r="1.80" style="stroke-width: 0.75;fill: #000000;"/>
<circle cx="183.58" cy="452.73" r="1.80" style="stroke-width: 0.75;fill: #000000;"/>
<circle cx="163.94" cy="449.72" r="1.80" style="stroke-width: 0.75;fill: #000000;"/>
<circle cx="183.58" cy="497.82" r="1.80" style="stroke-width: 0.75;fill: #000000;"/>
<circle cx="213.05" cy="438.60" r="1.80" style="stroke-width: 0.75;fill: #000000;"/>
<circle cx="154.12" cy="501.73" r="1.80" style="stroke-width: 0.75;fill: #000000;"/>
<circle cx="203.23" cy="432.09" r="1.80" style="stroke-width: 0.75;fill: #000000;"/>
<circle cx="193.40" cy="432.29" r="1.80" style="stroke-width: 0.75;fill: #000000;"/>
<circle cx="203.23" cy="482.19" r="1.80" style="stroke-width: 0.75;fill: #000000;"/>
<circle cx="203.23" cy="482.19" r="1.80" style="stroke-width: 0.75;fill: #000000;"/>
<circle cx="222.87" cy="457.14" r="1.80" style="stroke-width: 0.75;fill: #000000;"/>
<circle cx="242.51" cy="328.87" r="1.80" style="stroke-width: 0.75;fill: #000000;"/>
<circle cx="173.76" cy="478.18" r="1.80" style="stroke-width: 0.75;fill: #000000;"/>
<circle cx="203.23" cy="472.17" r="1.80" style="stroke-width: 0.75;fill: #000000;"/>
<circle cx="203.23" cy="371.96" r="1.80" style="stroke-width: 0.75;fill: #000000;"/>
<circle cx="173.76" cy="478.18" r="1.80" style="stroke-width: 0.75;fill: #000000;"/>
<circle cx="242.51" cy="392.00" r="1.80" style="stroke-width: 0.75;fill: #000000;"/>
<circle cx="163.94" cy="448.12" r="1.80" style="stroke-width: 0.75;fill: #000000;"/>
<circle cx="173.76" cy="442.41" r="1.80" style="stroke-width: 0.75;fill: #000000;"/>
<circle cx="242.51" cy="330.08" r="1.80" style="stroke-width: 0.75;fill: #000000;"/>
<circle cx="154.12" cy="467.16" r="1.80" style="stroke-width: 0.75;fill: #000000;"/>
<circle cx="271.98" cy="355.93" r="1.80" style="stroke-width: 0.75;fill: #000000;"/>
<circle cx="301.45" cy="452.13" r="1.80" style="stroke-width: 0.75;fill: #000000;"/>
<circle cx="291.62" cy="407.64" r="1.80" style="stroke-width: 0.75;fill: #000000;"/>
<circle cx="154.12" cy="414.55" r="1.80" style="stroke-width: 0.75;fill: #000000;"/>
<circle cx="193.40" cy="432.29" r="1.80" style="stroke-width: 0.75;fill: #000000;"/>
<circle cx="203.23" cy="402.02" r="1.80" style="stroke-width: 0.75;fill: #000000;"/>
<circle cx="173.76" cy="473.07" r="1.80" style="stroke-width: 0.75;fill: #000000;"/>
<circle cx="203.23" cy="496.22" r="1.80" style="stroke-width: 0.75;fill: #000000;"/>
<circle cx="163.94" cy="480.18" r="1.80" style="stroke-width: 0.75;fill: #000000;"/>
<circle cx="173.76" cy="435.59" r="1.80" style="stroke-width: 0.75;fill: #000000;"/>
<circle cx="154.12" cy="482.19" r="1.80" style="stroke-width: 0.75;fill: #000000;"/>
<circle cx="144.29" cy="477.18" r="1.80" style="stroke-width: 0.75;fill: #000000;"/>
<circle cx="203.23" cy="452.13" r="1.80" style="stroke-width: 0.75;fill: #000000;"/>
<circle cx="203.23" cy="464.15" r="1.80" style="stroke-width: 0.75;fill: #000000;"/>
<circle cx="154.12" cy="509.24" r="1.80" style="stroke-width: 0.75;fill: #000000;"/>
<circle cx="242.51" cy="444.91" r="1.80" style="stroke-width: 0.75;fill: #000000;"/>
<circle cx="193.40" cy="382.99" r="1.80" style="stroke-width: 0.75;fill: #000000;"/>
<circle cx="242.51" cy="416.05" r="1.80" style="stroke-width: 0.75;fill: #000000;"/>
<circle cx="252.34" cy="412.04" r="1.80" style="stroke-width: 0.75;fill: #000000;"/>
<circle cx="242.51" cy="239.69" r="1.80" style="stroke-width: 0.75;fill: #000000;"/>
<circle cx="154.12" cy="452.13" r="1.80" style="stroke-width: 0.75;fill: #000000;"/>
<circle cx="144.29" cy="484.19" r="1.80" style="stroke-width: 0.75;fill: #000000;"/>
<circle cx="203.23" cy="442.11" r="1.80" style="stroke-width: 0.75;fill: #000000;"/>
<circle cx="173.76" cy="444.11" r="1.80" style="stroke-width: 0.75;fill: #000000;"/>
<circle cx="203.23" cy="462.15" r="1.80" style="stroke-width: 0.75;fill: #000000;"/>
<circle cx="203.23" cy="462.15" r="1.80" style="stroke-width: 0.75;fill: #000000;"/>
<circle cx="242.51" cy="500.23" r="1.80" style="stroke-width: 0.75;fill: #000000;"/>
<circle cx="203.23" cy="448.12" r="1.80" style="stroke-width: 0.75;fill: #000000;"/>
<circle cx="144.29" cy="478.58" r="1.80" style="stroke-width: 0.75;fill: #000000;"/>
<circle cx="281.80" cy="287.79" r="1.80" style="stroke-width: 0.75;fill: #000000;"/>
<circle cx="163.94" cy="472.17" r="1.80" style="stroke-width: 0.75;fill: #000000;"/>
<circle cx="193.40" cy="464.65" r="1.80" style="stroke-width: 0.75;fill: #000000;"/>
<circle cx="262.16" cy="408.04" r="1.80" style="stroke-width: 0.75;fill: #000000;"/>
<circle cx="222.87" cy="446.11" r="1.80" style="stroke-width: 0.75;fill: #000000;"/>
<circle cx="193.40" cy="436.09" r="1.80" style="stroke-width: 0.75;fill: #000000;"/>
<circle cx="203.23" cy="452.13" r="1.80" style="stroke-width: 0.75;fill: #000000;"/>
<circle cx="144.29" cy="475.78" r="1.80" style="stroke-width: 0.75;fill: #000000;"/>
<circle cx="203.23" cy="391.60" r="1.80" style="stroke-width: 0.75;fill: #000000;"/>
<circle cx="144.29" cy="472.97" r="1.80" style="stroke-width: 0.75;fill: #000000;"/>
<circle cx="173.76" cy="448.12" r="1.80" style="stroke-width: 0.75;fill: #000000;"/>
<circle cx="173.76" cy="469.66" r="1.80" style="stroke-width: 0.75;fill: #000000;"/>
<circle cx="154.12" cy="452.13" r="1.80" style="stroke-width: 0.75;fill: #000000;"/>
<circle cx="291.62" cy="328.91" r="1.80" style="stroke-width: 0.75;fill: #000000;"/>
<circle cx="203.23" cy="432.09" r="1.80" style="stroke-width: 0.75;fill: #000000;"/>
<circle cx="173.76" cy="461.15" r="1.80" style="stroke-width: 0.75;fill: #000000;"/>
<circle cx="193.40" cy="504.63" r="1.80" style="stroke-width: 0.75;fill: #000000;"/>
<circle cx="213.05" cy="449.12" r="1.80" style="stroke-width: 0.75;fill: #000000;"/>
<circle cx="193.40" cy="436.09" r="1.80" style="stroke-width: 0.75;fill: #000000;"/>
<circle cx="203.23" cy="432.09" r="1.80" style="stroke-width: 0.75;fill: #000000;"/>
<circle cx="154.12" cy="467.16" r="1.80" style="stroke-width: 0.75;fill: #000000;"/>
<circle cx="301.45" cy="452.13" r="1.80" style="stroke-width: 0.75;fill: #000000;"/>
<circle cx="183.58" cy="458.14" r="1.80" style="stroke-width: 0.75;fill: #000000;"/>
<circle cx="154.12" cy="452.13" r="1.80" style="stroke-width: 0.75;fill: #000000;"/>
<circle cx="281.80" cy="400.02" r="1.80" style="stroke-width: 0.75;fill: #000000;"/>
<circle cx="242.51" cy="416.05" r="1.80" style="stroke-width: 0.75;fill: #000000;"/>
<circle cx="183.58" cy="440.10" r="1.80" style="stroke-width: 0.75;fill: #000000;"/>
<circle cx="203.23" cy="353.42" r="1.80" style="stroke-width: 0.75;fill: #000000;"/>
<circle cx="213.05" cy="444.91" r="1.80" style="stroke-width: 0.75;fill: #000000;"/>
<circle cx="183.58" cy="410.04" r="1.80" style="stroke-width: 0.75;fill: #000000;"/>
<circle cx="222.87" cy="413.05" r="1.80" style="stroke-width: 0.75;fill: #000000;"/>
<circle cx="154.12" cy="467.16" r="1.80" style="stroke-width: 0.75;fill: #000000;"/>
<circle cx="144.29" cy="455.13" r="1.80" style="stroke-width: 0.75;fill: #000000;"/>
<circle cx="271.98" cy="326.77" r="1.80" style="stroke-width: 0.75;fill: #000000;"/>
<circle cx="173.76" cy="452.63" r="1.80" style="stroke-width: 0.75;fill: #000000;"/>
<circle cx="645.22" cy="206.62" r="1.80" style="stroke-width: 0.75;fill: #000000;"/>
<circle cx="262.16" cy="408.04" r="1.80" style="stroke-width: 0.75;fill: #000000;"/>
<circle cx="301.45" cy="437.10" r="1.80" style="stroke-width: 0.75;fill: #000000;"/>
<circle cx="183.58" cy="476.18" r="1.80" style="stroke-width: 0.75;fill: #000000;"/>
<circle cx="271.98" cy="404.03" r="1.80" style="stroke-width: 0.75;fill: #000000;"/>
<circle cx="222.87" cy="441.71" r="1.80" style="stroke-width: 0.75;fill: #000000;"/>
<circle cx="173.76" cy="449.22" r="1.80" style="stroke-width: 0.75;fill: #000000;"/>
<circle cx="203.23" cy="442.11" r="1.80" style="stroke-width: 0.75;fill: #000000;"/>
<circle cx="203.23" cy="432.09" r="1.80" style="stroke-width: 0.75;fill: #000000;"/>
<circle cx="173.76" cy="498.62" r="1.80" style="stroke-width: 0.75;fill: #000000;"/>
<circle cx="154.12" cy="497.22" r="1.80" style="stroke-width: 0.75;fill: #000000;"/>
<circle cx="301.45" cy="346.91" r="1.80" style="stroke-width: 0.75;fill: #000000;"/>
<circle cx="173.76" cy="478.18" r="1.80" style="stroke-width: 0.75;fill: #000000;"/>
<circle cx="183.58" cy="476.18" r="1.80" style="stroke-width: 0.75;fill: #000000;"/>
<circle cx="213.05" cy="470.16" r="1.80" style="stroke-width: 0.75;fill: #000000;"/>
<circle cx="154.12" cy="491.21" r="1.80" style="stroke-width: 0.75;fill: #000000;"/>
<circle cx="203.23" cy="367.95" r="1.80" style="stroke-width: 0.75;fill: #000000;"/>
<circle cx="163.94" cy="400.02" r="1.80" style="stroke-width: 0.75;fill: #000000;"/>
<circle cx="222.87" cy="424.07" r="1.80" style="stroke-width: 0.75;fill: #000000;"/>
<circle cx="183.58" cy="458.14" r="1.80" style="stroke-width: 0.75;fill: #000000;"/>
<circle cx="154.12" cy="467.16" r="1.80" style="stroke-width: 0.75;fill: #000000;"/>
<circle cx="134.47" cy="434.09" r="1.80" style="stroke-width: 0.75;fill: #000000;"/>
<circle cx="173.76" cy="491.81" r="1.80" style="stroke-width: 0.75;fill: #000000;"/>
<circle cx="203.23" cy="432.09" r="1.80" style="stroke-width: 0.75;fill: #000000;"/>
<circle cx="193.40" cy="445.61" r="1.80" style="stroke-width: 0.75;fill: #000000;"/>
<circle cx="154.12" cy="477.68" r="1.80" style="stroke-width: 0.75;fill: #000000;"/>
<circle cx="222.87" cy="446.11" r="1.80" style="stroke-width: 0.75;fill: #000000;"/>
<circle cx="262.16" cy="421.06" r="1.80" style="stroke-width: 0.75;fill: #000000;"/>
<circle cx="222.87" cy="424.07" r="1.80" style="stroke-width: 0.75;fill: #000000;"/>
<circle cx="173.76" cy="444.11" r="1.80" style="stroke-width: 0.75;fill: #000000;"/>
<circle cx="183.58" cy="440.10" r="1.80" style="stroke-width: 0.75;fill: #000000;"/>
<circle cx="203.23" cy="452.13" r="1.80" style="stroke-width: 0.75;fill: #000000;"/>
<circle cx="203.23" cy="392.00" r="1.80" style="stroke-width: 0.75;fill: #000000;"/>
<circle cx="252.34" cy="399.52" r="1.80" style="stroke-width: 0.75;fill: #000000;"/>
<circle cx="222.87" cy="428.48" r="1.80" style="stroke-width: 0.75;fill: #000000;"/>
<circle cx="193.40" cy="438.10" r="1.80" style="stroke-width: 0.75;fill: #000000;"/>
<circle cx="743.44" cy="76.36" r="1.80" style="stroke-width: 0.75;fill: #000000;"/>
<circle cx="163.94" cy="456.14" r="1.80" style="stroke-width: 0.75;fill: #000000;"/>
<circle cx="154.12" cy="460.14" r="1.80" style="stroke-width: 0.75;fill: #000000;"/>
<circle cx="193.40" cy="474.17" r="1.80" style="stroke-width: 0.75;fill: #000000;"/>
<circle cx="203.23" cy="432.09" r="1.80" style="stroke-width: 0.75;fill: #000000;"/>
<circle cx="163.94" cy="464.15" r="1.80" style="stroke-width: 0.75;fill: #000000;"/>
<circle cx="193.40" cy="479.88" r="1.80" style="stroke-width: 0.75;fill: #000000;"/>
<circle cx="222.87" cy="424.07" r="1.80" style="stroke-width: 0.75;fill: #000000;"/>
<circle cx="242.51" cy="416.05" r="1.80" style="stroke-width: 0.75;fill: #000000;"/>
<circle cx="203.23" cy="432.09" r="1.80" style="stroke-width: 0.75;fill: #000000;"/>
<circle cx="193.40" cy="407.54" r="1.80" style="stroke-width: 0.75;fill: #000000;"/>
<circle cx="213.05" cy="428.08" r="1.80" style="stroke-width: 0.75;fill: #000000;"/>
<circle cx="173.76" cy="469.66" r="1.80" style="stroke-width: 0.75;fill: #000000;"/>
<circle cx="144.29" cy="491.21" r="1.80" style="stroke-width: 0.75;fill: #000000;"/>
<circle cx="301.45" cy="437.10" r="1.80" style="stroke-width: 0.75;fill: #000000;"/>
<circle cx="173.76" cy="450.92" r="1.80" style="stroke-width: 0.75;fill: #000000;"/>
<circle cx="203.23" cy="412.04" r="1.80" style="stroke-width: 0.75;fill: #000000;"/>
<circle cx="183.58" cy="440.10" r="1.80" style="stroke-width: 0.75;fill: #000000;"/>
<circle cx="222.87" cy="424.07" r="1.80" style="stroke-width: 0.75;fill: #000000;"/>
<circle cx="242.51" cy="416.05" r="1.80" style="stroke-width: 0.75;fill: #000000;"/>
<circle cx="262.16" cy="408.04" r="1.80" style="stroke-width: 0.75;fill: #000000;"/>
<circle cx="203.23" cy="432.09" r="1.80" style="stroke-width: 0.75;fill: #000000;"/>
<circle cx="213.05" cy="428.08" r="1.80" style="stroke-width: 0.75;fill: #000000;"/>
<circle cx="242.51" cy="416.05" r="1.80" style="stroke-width: 0.75;fill: #000000;"/>
<circle cx="163.94" cy="472.17" r="1.80" style="stroke-width: 0.75;fill: #000000;"/>
<circle cx="222.87" cy="435.09" r="1.80" style="stroke-width: 0.75;fill: #000000;"/>
<circle cx="242.51" cy="464.15" r="1.80" style="stroke-width: 0.75;fill: #000000;"/>
<circle cx="154.12" cy="489.70" r="1.80" style="stroke-width: 0.75;fill: #000000;"/>
<circle cx="163.94" cy="456.14" r="1.80" style="stroke-width: 0.75;fill: #000000;"/>
<circle cx="85.36" cy="484.19" r="1.80" style="stroke-width: 0.75;fill: #000000;"/>
<circle cx="163.94" cy="448.12" r="1.80" style="stroke-width: 0.75;fill: #000000;"/>
<circle cx="163.94" cy="464.15" r="1.80" style="stroke-width: 0.75;fill: #000000;"/>
<circle cx="301.45" cy="422.07" r="1.80" style="stroke-width: 0.75;fill: #000000;"/>
<circle cx="183.58" cy="440.10" r="1.80" style="stroke-width: 0.75;fill: #000000;"/>
<circle cx="203.23" cy="432.09" r="1.80" style="stroke-width: 0.75;fill: #000000;"/>
<circle cx="213.05" cy="361.94" r="1.80" style="stroke-width: 0.75;fill: #000000;"/>
<circle cx="183.58" cy="476.18" r="1.80" style="stroke-width: 0.75;fill: #000000;"/>
<circle cx="144.29" cy="456.14" r="1.80" style="stroke-width: 0.75;fill: #000000;"/>
<circle cx="271.98" cy="404.03" r="1.80" style="stroke-width: 0.75;fill: #000000;"/>
<circle cx="213.05" cy="428.08" r="1.80" style="stroke-width: 0.75;fill: #000000;"/>
<circle cx="183.58" cy="458.14" r="1.80" style="stroke-width: 0.75;fill: #000000;"/>
<circle cx="203.23" cy="442.11" r="1.80" style="stroke-width: 0.75;fill: #000000;"/>
<circle cx="154.12" cy="488.20" r="1.80" style="stroke-width: 0.75;fill: #000000;"/>
<circle cx="163.94" cy="472.17" r="1.80" style="stroke-width: 0.75;fill: #000000;"/>
<circle cx="203.23" cy="448.12" r="1.80" style="stroke-width: 0.75;fill: #000000;"/>
<circle cx="154.12" cy="446.57" r="1.80" style="stroke-width: 0.75;fill: #000000;"/>
<circle cx="222.87" cy="426.27" r="1.80" style="stroke-width: 0.75;fill: #000000;"/>
<circle cx="330.91" cy="379.98" r="1.80" style="stroke-width: 0.75;fill: #000000;"/>
<circle cx="301.45" cy="392.00" r="1.80" style="stroke-width: 0.75;fill: #000000;"/>
<circle cx="232.69" cy="424.67" r="1.80" style="stroke-width: 0.75;fill: #000000;"/>
<circle cx="203.23" cy="371.96" r="1.80" style="stroke-width: 0.75;fill: #000000;"/>
<circle cx="173.76" cy="444.11" r="1.80" style="stroke-width: 0.75;fill: #000000;"/>
<circle cx="105.01" cy="502.23" r="1.80" style="stroke-width: 0.75;fill: #000000;"/>
<circle cx="134.47" cy="480.99" r="1.80" style="stroke-width: 0.75;fill: #000000;"/>
<circle cx="193.40" cy="436.09" r="1.80" style="stroke-width: 0.75;fill: #000000;"/>
<circle cx="252.34" cy="412.04" r="1.80" style="stroke-width: 0.75;fill: #000000;"/>
<circle cx="173.76" cy="478.18" r="1.80" style="stroke-width: 0.75;fill: #000000;"/>
<circle cx="547.00" cy="291.80" r="1.80" style="stroke-width: 0.75;fill: #000000;"/>
<circle cx="242.51" cy="452.13" r="1.80" style="stroke-width: 0.75;fill: #000000;"/>
<circle cx="213.05" cy="438.60" r="1.80" style="stroke-width: 0.75;fill: #000000;"/>
<circle cx="242.51" cy="488.20" r="1.80" style="stroke-width: 0.75;fill: #000000;"/>
<circle cx="242.51" cy="319.86" r="1.80" style="stroke-width: 0.75;fill: #000000;"/>
<circle cx="232.69" cy="420.06" r="1.80" style="stroke-width: 0.75;fill: #000000;"/>
<circle cx="213.05" cy="470.16" r="1.80" style="stroke-width: 0.75;fill: #000000;"/>
<circle cx="85.36" cy="496.22" r="1.80" style="stroke-width: 0.75;fill: #000000;"/>
<circle cx="154.12" cy="464.15" r="1.80" style="stroke-width: 0.75;fill: #000000;"/>
<circle cx="173.76" cy="444.11" r="1.80" style="stroke-width: 0.75;fill: #000000;"/>
<circle cx="154.12" cy="452.13" r="1.80" style="stroke-width: 0.75;fill: #000000;"/>
<circle cx="114.83" cy="482.49" r="1.80" style="stroke-width: 0.75;fill: #000000;"/>
<circle cx="183.58" cy="373.97" r="1.80" style="stroke-width: 0.75;fill: #000000;"/>
<circle cx="144.29" cy="505.24" r="1.80" style="stroke-width: 0.75;fill: #000000;"/>
<circle cx="232.69" cy="415.45" r="1.80" style="stroke-width: 0.75;fill: #000000;"/>
<circle cx="301.45" cy="422.07" r="1.80" style="stroke-width: 0.75;fill: #000000;"/>
<circle cx="222.87" cy="424.07" r="1.80" style="stroke-width: 0.75;fill: #000000;"/>
<circle cx="183.58" cy="458.14" r="1.80" style="stroke-width: 0.75;fill: #000000;"/>
<circle cx="163.94" cy="472.17" r="1.80" style="stroke-width: 0.75;fill: #000000;"/>
<circle cx="232.69" cy="405.03" r="1.80" style="stroke-width: 0.75;fill: #000000;"/>
<circle cx="163.94" cy="432.89" r="1.80" style="stroke-width: 0.75;fill: #000000;"/>
<circle cx="163.94" cy="464.15" r="1.80" style="stroke-width: 0.75;fill: #000000;"/>
<circle cx="163.94" cy="472.17" r="1.80" style="stroke-width: 0.75;fill: #000000;"/>
<circle cx="154.12" cy="452.13" r="1.80" style="stroke-width: 0.75;fill: #000000;"/>
<circle cx="173.76" cy="444.11" r="1.80" style="stroke-width: 0.75;fill: #000000;"/>
<circle cx="85.36" cy="483.39" r="1.80" style="stroke-width: 0.75;fill: #000000;"/>
<circle cx="154.12" cy="458.14" r="1.80" style="stroke-width: 0.75;fill: #000000;"/>
<circle cx="163.94" cy="451.33" r="1.80" style="stroke-width: 0.75;fill: #000000;"/>
<circle cx="213.05" cy="449.12" r="1.80" style="stroke-width: 0.75;fill: #000000;"/>
<circle cx="105.01" cy="502.23" r="1.80" style="stroke-width: 0.75;fill: #000000;"/>
<circle cx="370.20" cy="426.98" r="1.80" style="stroke-width: 0.75;fill: #000000;"/>
<circle cx="232.69" cy="466.16" r="1.80" style="stroke-width: 0.75;fill: #000000;"/>
<circle cx="183.58" cy="440.10" r="1.80" style="stroke-width: 0.75;fill: #000000;"/>
<circle cx="301.45" cy="392.00" r="1.80" style="stroke-width: 0.75;fill: #000000;"/>
<circle cx="203.23" cy="396.01" r="1.80" style="stroke-width: 0.75;fill: #000000;"/>
<circle cx="301.45" cy="422.07" r="1.80" style="stroke-width: 0.75;fill: #000000;"/>
</g><g clip-path="url(#c2)">
<line x1="105.01" y1="526.56" x2="694.33" y2="526.56" style="stroke-width: 0.75;"/>
<line x1="105.01" y1="526.56" x2="105.01" y2="533.76" style="stroke-width: 0.75;"/>
<line x1="203.23" y1="526.56" x2="203.23" y2="533.76" style="stroke-width: 0.75;"/>
<line x1="301.45" y1="526.56" x2="301.45" y2="533.76" style="stroke-width: 0.75;"/>
<line x1="399.67" y1="526.56" x2="399.67" y2="533.76" style="stroke-width: 0.75;"/>
<line x1="497.89" y1="526.56" x2="497.89" y2="533.76" style="stroke-width: 0.75;"/>
<line x1="596.11" y1="526.56" x2="596.11" y2="533.76" style="stroke-width: 0.75;"/>
<line x1="694.33" y1="526.56" x2="694.33" y2="533.76" style="stroke-width: 0.75;"/>
<g><text x="105.01" y="552.48" text-anchor="middle" style="font-family: Liberation Sans;font-size: 12.00px;" textLength="7.64px" lengthAdjust="spacingAndGlyphs">5</text></g>
<g><text x="203.23" y="552.48" text-anchor="middle" style="font-family: Liberation Sans;font-size: 12.00px;" textLength="15.28px" lengthAdjust="spacingAndGlyphs">10</text></g>
<g><text x="301.45" y="552.48" text-anchor="middle" style="font-family: Liberation Sans;font-size: 12.00px;" textLength="15.28px" lengthAdjust="spacingAndGlyphs">15</text></g>
<g><text x="399.67" y="552.48" text-anchor="middle" style="font-family: Liberation Sans;font-size: 12.00px;" textLength="15.28px" lengthAdjust="spacingAndGlyphs">20</text></g>
<g><text x="497.89" y="552.48" text-anchor="middle" style="font-family: Liberation Sans;font-size: 12.00px;" textLength="15.28px" lengthAdjust="spacingAndGlyphs">25</text></g>
<g><text x="596.11" y="552.48" text-anchor="middle" style="font-family: Liberation Sans;font-size: 12.00px;" textLength="15.28px" lengthAdjust="spacingAndGlyphs">30</text></g>
<g><text x="694.33" y="552.48" text-anchor="middle" style="font-family: Liberation Sans;font-size: 12.00px;" textLength="15.28px" lengthAdjust="spacingAndGlyphs">35</text></g>
<line x1="59.04" y1="512.25" x2="59.04" y2="126.84" style="stroke-width: 0.75;"/>
<line x1="59.04" y1="512.25" x2="51.84" y2="512.25" style="stroke-width: 0.75;"/>
<line x1="59.04" y1="435.17" x2="51.84" y2="435.17" style="stroke-width: 0.75;"/>
<line x1="59.04" y1="358.09" x2="51.84" y2="358.09" style="stroke-width: 0.75;"/>
<line x1="59.04" y1="281.01" x2="51.84" y2="281.01" style="stroke-width: 0.75;"/>
<line x1="59.04" y1="203.93" x2="51.84" y2="203.93" style="stroke-width: 0.75;"/>
<line x1="59.04" y1="126.84" x2="51.84" y2="126.84" style="stroke-width: 0.75;"/>
<g><text transform="translate(41.76,512.25) rotate(-90.00)" text-anchor="middle" style="font-family: Liberation Sans;font-size: 12.00px;" textLength="40.36px" lengthAdjust="spacingAndGlyphs">0e+00</text></g>
<g><text transform="translate(41.76,435.17) rotate(-90.00)" text-anchor="middle" style="font-family: Liberation Sans;font-size: 12.00px;" textLength="40.36px" lengthAdjust="spacingAndGlyphs">2e+04</text></g>
<g><text transform="translate(41.76,358.09) rotate(-90.00)" text-anchor="middle" style="font-family: Liberation Sans;font-size: 12.00px;" textLength="40.36px" lengthAdjust="spacingAndGlyphs">4e+04</text></g>
<g><text transform="translate(41.76,281.01) rotate(-90.00)" text-anchor="middle" style="font-family: Liberation Sans;font-size: 12.00px;" textLength="40.36px" lengthAdjust="spacingAndGlyphs">6e+04</text></g>
<g><text transform="translate(41.76,203.93) rotate(-90.00)" text-anchor="middle" style="font-family: Liberation Sans;font-size: 12.00px;" textLength="40.36px" lengthAdjust="spacingAndGlyphs">8e+04</text></g>
<g><text transform="translate(41.76,126.84) rotate(-90.00)" text-anchor="middle" style="font-family: Liberation Sans;font-size: 12.00px;" textLength="40.36px" lengthAdjust="spacingAndGlyphs">1e+05</text></g>
<polygon points="59.04,526.56 769.76,526.56 769.76,59.04 59.04,59.04" style="stroke-width: 0.75;" />
<g><text x="414.40" y="34.77" text-anchor="middle" style="font-family: Liberation Sans;font-size: 14.40px;font-weight: bold;" textLength="324.88px" lengthAdjust="spacingAndGlyphs">Scatterplot of Wages vs. Annual Income</text></g>
<g><text x="414.40" y="581.28" text-anchor="middle" style="font-family: Liberation Sans;font-size: 12.00px;" textLength="74.76px" lengthAdjust="spacingAndGlyphs">Dollars/Hour</text></g>
<g><text transform="translate(12.96,292.80) rotate(-90.00)" text-anchor="middle" style="font-family: Liberation Sans;font-size: 12.00px;" textLength="71.27px" lengthAdjust="spacingAndGlyphs">Dollars/Year</text></g>
</g><g clip-path="url(#c3)">
<line x1="59.04" y1="517.18" x2="769.76" y2="128.62" style="stroke-width: 0.75;"/>
</g>
</svg>