<svg xmlns="http://www.w3.org/2000/svg" xmlns:xlink="http://www.w3.org/1999/xlink" class="httpgd" width="1086.00" height="627.00" viewBox="0 0 868.80 501.60">
<defs>
  <style type='text/css'><![CDATA[
    .httpgd line, .httpgd polyline, .httpgd polygon, .httpgd path, .httpgd rect, .httpgd circle {
      fill: none;
      stroke: #000000;
      stroke-linecap: round;
      stroke-linejoin: round;
      stroke-miterlimit: 10.00;
    }
  ]]></style>
<clipPath id="c0"><rect x="0.00" y="0.00" width="868.80" height="501.60"/></clipPath>
<clipPath id="c1"><rect x="59.04" y="59.04" width="779.52" height="369.12"/></clipPath>
<clipPath id="c2"><rect x="0.00" y="0.00" width="868.80" height="501.60"/></clipPath>
<clipPath id="c3"><rect x="59.04" y="59.04" width="779.52" height="369.12"/></clipPath>
</defs>
<rect width="100%" height="100%" style="stroke: none;fill: #FFFFFF;"/>
<g clip-path="url(#c0)">
</g><g clip-path="url(#c2)">
<g><text x="448.80" y="34.77" text-anchor="middle" style="font-family: Liberation Sans;font-size: 14.40px;font-weight: bold;" textLength="282.07px" lengthAdjust="spacingAndGlyphs">Histogram of wages of primary job</text></g>
<g><text x="448.80" y="497.28" text-anchor="middle" style="font-family: Liberation Sans;font-size: 12.00px;" textLength="221.88px" lengthAdjust="spacingAndGlyphs">(Source: ggplot2::wage_primary_job)</text></g>
<g><text x="448.80" y="482.88" text-anchor="middle" style="font-family: Liberation Sans;font-size: 12.00px;" textLength="142.34px" lengthAdjust="spacingAndGlyphs">wages in dollars approx</text></g>
<g><text transform="translate(12.96,243.60) rotate(-90.00)" text-anchor="middle" style="font-family: Liberation Sans;font-size: 12.00px;" textLength="62.02px" lengthAdjust="spacingAndGlyphs">Frequency</text></g>
<line x1="109.14" y1="428.16" x2="746.00" y2="428.16" style="stroke-width: 0.75;"/>
<line x1="109.14" y1="428.16" x2="109.14" y2="435.36" style="stroke-width: 0.75;"/>
<line x1="215.28" y1="428.16" x2="215.28" y2="435.36" style="stroke-width: 0.75;"/>
<line x1="321.43" y1="428.16" x2="321.43" y2="435.36" style="stroke-width: 0.75;"/>
<line x1="427.57" y1="428.16" x2="427.57" y2="435.36" style="stroke-width: 0.75;"/>
<line x1="533.72" y1="428.16" x2="533.72" y2="435.36" style="stroke-width: 0.75;"/>
<line x1="639.86" y1="428.16" x2="639.86" y2="435.36" style="stroke-width: 0.75;"/>
<line x1="746.00" y1="428.16" x2="746.00" y2="435.36" style="stroke-width: 0.75;"/>
<g><text x="109.14" y="454.08" text-anchor="middle" style="font-family: Liberation Sans;font-size: 12.00px;" textLength="7.64px" lengthAdjust="spacingAndGlyphs">5</text></g>
<g><text x="215.28" y="454.08" text-anchor="middle" style="font-family: Liberation Sans;font-size: 12.00px;" textLength="15.28px" lengthAdjust="spacingAndGlyphs">10</text></g>
<g><text x="321.43" y="454.08" text-anchor="middle" style="font-family: Liberation Sans;font-size: 12.00px;" textLength="15.28px" lengthAdjust="spacingAndGlyphs">15</text></g>
<g><text x="427.57" y="454.08" text-anchor="middle" style="font-family: Liberation Sans;font-size: 12.00px;" textLength="15.28px" lengthAdjust="spacingAndGlyphs">20</text></g>
<g><text x="533.72" y="454.08" text-anchor="middle" style="font-family: Liberation Sans;font-size: 12.00px;" textLength="15.28px" lengthAdjust="spacingAndGlyphs">25</text></g>
<g><text x="639.86" y="454.08" text-anchor="middle" style="font-family: Liberation Sans;font-size: 12.00px;" textLength="15.28px" lengthAdjust="spacingAndGlyphs">30</text></g>
<g><text x="746.00" y="454.08" text-anchor="middle" style="font-family: Liberation Sans;font-size: 12.00px;" textLength="15.28px" lengthAdjust="spacingAndGlyphs">35</text></g>
<line x1="59.04" y1="414.49" x2="59.04" y2="88.99" style="stroke-width: 0.75;"/>
<line x1="59.04" y1="414.49" x2="51.84" y2="414.49" style="stroke-width: 0.75;"/>
<line x1="59.04" y1="333.11" x2="51.84" y2="333.11" style="stroke-width: 0.75;"/>
<line x1="59.04" y1="251.74" x2="51.84" y2="251.74" style="stroke-width: 0.75;"/>
<line x1="59.04" y1="170.36" x2="51.84" y2="170.36" style="stroke-width: 0.75;"/>
<line x1="59.04" y1="88.99" x2="51.84" y2="88.99" style="stroke-width: 0.75;"/>
<g><text transform="translate(41.76,414.49) rotate(-90.00)" text-anchor="middle" style="font-family: Liberation Sans;font-size: 12.00px;" textLength="7.64px" lengthAdjust="spacingAndGlyphs">0</text></g>
<g><text transform="translate(41.76,333.11) rotate(-90.00)" text-anchor="middle" style="font-family: Liberation Sans;font-size: 12.00px;" textLength="15.28px" lengthAdjust="spacingAndGlyphs">20</text></g>
<g><text transform="translate(41.76,251.74) rotate(-90.00)" text-anchor="middle" style="font-family: Liberation Sans;font-size: 12.00px;" textLength="15.28px" lengthAdjust="spacingAndGlyphs">40</text></g>
<g><text transform="translate(41.76,170.36) rotate(-90.00)" text-anchor="middle" style="font-family: Liberation Sans;font-size: 12.00px;" textLength="15.28px" lengthAdjust="spacingAndGlyphs">60</text></g>
<g><text transform="translate(41.76,88.99) rotate(-90.00)" text-anchor="middle" style="font-family: Liberation Sans;font-size: 12.00px;" textLength="15.28px" lengthAdjust="spacingAndGlyphs">80</text></g>
</g><g clip-path="url(#c3)">
<rect x="87.91" y="390.08" width="42.46" height="24.41" style="stroke-width: 0.75;stroke: none;fill: #CD0000;"/>
<rect x="130.37" y="211.05" width="42.46" height="203.44" style="stroke-width: 0.75;stroke: none;fill: #CD0000;"/>
<rect x="172.83" y="72.71" width="42.46" height="341.78" style="stroke-width: 0.75;stroke: none;fill: #CD0000;"/>
<rect x="215.28" y="231.39" width="42.46" height="183.10" style="stroke-width: 0.75;stroke: none;fill: #CD0000;"/>
<rect x="257.74" y="361.59" width="42.46" height="52.89" style="stroke-width: 0.75;stroke: none;fill: #CD0000;"/>
<rect x="300.20" y="365.66" width="42.46" height="48.83" style="stroke-width: 0.75;stroke: none;fill: #CD0000;"/>
<rect x="342.66" y="410.42" width="42.46" height="4.07" style="stroke-width: 0.75;stroke: none;fill: #CD0000;"/>
<rect x="385.11" y="410.42" width="42.46" height="4.07" style="stroke-width: 0.75;stroke: none;fill: #CD0000;"/>
<rect x="427.57" y="414.49" width="42.46" height="0.00" style="stroke-width: 0.75;stroke: none;fill: #CD0000;"/>
<rect x="470.03" y="414.49" width="42.46" height="0.00" style="stroke-width: 0.75;stroke: none;fill: #CD0000;"/>
<rect x="512.49" y="414.49" width="42.46" height="0.00" style="stroke-width: 0.75;stroke: none;fill: #CD0000;"/>
<rect x="554.94" y="410.42" width="42.46" height="4.07" style="stroke-width: 0.75;stroke: none;fill: #CD0000;"/>
<rect x="597.40" y="414.49" width="42.46" height="0.00" style="stroke-width: 0.75;stroke: none;fill: #CD0000;"/>
<rect x="639.86" y="414.49" width="42.46" height="0.00" style="stroke-width: 0.75;stroke: none;fill: #CD0000;"/>
<rect x="682.32" y="410.42" width="42.46" height="4.07" style="stroke-width: 0.75;stroke: none;fill: #CD0000;"/>
<rect x="724.77" y="414.49" width="42.46" height="0.00" style="stroke-width: 0.75;stroke: none;fill: #CD0000;"/>
<rect x="767.23" y="410.42" width="42.46" height="4.07" style="stroke-width: 0.75;stroke: none;fill: #CD0000;"/>
</g>
</svg>